<?xml version="1.0" encoding="utf-8"?>
<!-- Generator: Adobe Illustrator 19.2.0, SVG Export Plug-In . SVG Version: 6.00 Build 0)  -->
<svg version="1.1" id="Слой_1" xmlns="http://www.w3.org/2000/svg" xmlns:xlink="http://www.w3.org/1999/xlink" x="0px" y="0px"
	 viewBox="0 0 512 512" style="enable-background:new 0 0 512 512;" xml:space="preserve">
<path fill="#6d6e71" d="M0,80c0-8.8,7.2-16,16-16h396.8l3.2-16c0-8.8,7.2-16,16-16h64c8.8,0,16,7.2,16,16s-7.2,16-16,16h-51.2L384,368
	c0,8.8-7.2,16-16,16H80c-8.8,0-16-7.2-16-16s7.2-16,16-16h275.2l12.8-64H64c-2.2,0-4.3-0.4-6.2-1.2c-3.8-1.6-6.9-4.7-8.5-8.5
	c-0.8-1.9-1.2-4-1.2-6.2L1.4,86.4C0.5,84.4,0,82.3,0,80z M406.4,96H320v160h54.4L406.4,96z M224,256h80V96h-80V256z M128,256h80V96
	h-80V256z M35.4,96L76,256h36V96H35.4z M384,464c0,26.5-21.5,48-48,48s-48-21.5-48-48s21.5-48,48-48S384,437.5,384,464z M352,464
	c0-8.8-7.2-16-16-16c-8.8,0-16,7.2-16,16s7.2,16,16,16S352,472.8,352,464z M160,464c0,26.5-21.5,48-48,48s-48-21.5-48-48
	s21.5-48,48-48S160,437.5,160,464z M128,464c0-8.8-7.2-16-16-16s-16,7.2-16,16s7.2,16,16,16S128,472.8,128,464z"/>
</svg>
