<?xml version="1.0" encoding="utf-8"?>
<!-- Generator: Adobe Illustrator 19.2.0, SVG Export Plug-In . SVG Version: 6.00 Build 0)  -->
<svg version="1.1" id="Слой_1" xmlns="http://www.w3.org/2000/svg" xmlns:xlink="http://www.w3.org/1999/xlink" x="0px" y="0px"
	 viewBox="0 0 16 16" style="enable-background:new 0 0 16 16;" xml:space="preserve">
<style type="text/css">
	.st0{fill:#0C0E0F;}
	.st1{fill:#E8D649;}
	.st2{fill:#F9EC77;}
	.st3{fill:#F6E747;}
</style>
<g>
	<rect class="st0" width="16" height="16"/>
	<path class="st1" d="M12,10c-0.1,0.1-0.2,0.2-0.2,0.2c-1.2,1.2-2.4,2.4-3.6,3.6C8.1,14,8,14,7.9,13.9c-1.2-1.2-2.5-2.5-3.7-3.7
		c0,0-0.1-0.1-0.1-0.1c0,0,0.1-0.1,0.1-0.1C5.4,8.7,6.7,7.4,8,6.1C8,6.1,8,6.1,8.1,6c0,0,0,0.1,0.1,0.1c1.3,1.3,2.5,2.5,3.8,3.8
		C12,9.9,12,10,12,10z"/>
	<path class="st2" d="M8.1,6C8,6.1,8,6.1,8,6.1C6.7,7.4,5.4,8.7,4.2,9.9c0,0-0.1,0.1-0.1,0.1C4,10,4,9.9,3.9,9.9
		C2.7,8.7,1.5,7.4,0.2,6.2C0.1,6.1,0.1,6,0.2,5.9c1.2-1.2,2.5-2.5,3.7-3.7c0.1-0.1,0.1-0.1,0.2,0c1.2,1.2,2.5,2.5,3.7,3.7
		C7.9,5.9,8,6,8.1,6C8.1,6,8.1,6,8.1,6z"/>
	<path class="st3" d="M8.1,6C8.1,6,8.1,6,8.1,6c1.3-1.3,2.6-2.6,3.8-3.9c0.1-0.1,0.1-0.1,0.2,0c1.3,1.3,2.5,2.5,3.8,3.8
		C16,6,16,6,15.9,6.1c-1.3,1.3-2.6,2.6-3.8,3.8c0,0,0,0,0,0c0,0-0.1-0.1-0.1-0.1C10.7,8.7,9.4,7.4,8.1,6C8.1,6.1,8.1,6.1,8.1,6z"/>
</g>
</svg>
